<?xml version="1.0" encoding="UTF-8"?>
<svg id="Layer_1" xmlns="http://www.w3.org/2000/svg" version="1.1" viewBox="0 0 1920 1080">
  <!-- Generator: Adobe Illustrator 29.1.0, SVG Export Plug-In . SVG Version: 2.1.0 Build 142)  -->
  <path d="M139.74,1079.5l924.09-702.64c13.88-10.55,31.45-16.36,49.48-16.36,23.66,0,45.76,9.66,60.63,26.5l332.93,377c13.04,14.77,19.18,33.44,17.29,52.59-1.94,19.55-11.95,37.13-28.21,49.49l-280.68,213.42H139.74Z"/>
  <path d="M1113.32,361c23.52,0,45.48,9.6,60.26,26.33l332.93,377c12.95,14.66,19.04,33.2,17.16,52.21-1.92,19.41-11.87,36.87-28.01,49.14l-280.55,213.32H141.23l922.91-701.74c13.79-10.49,31.26-16.26,49.18-16.26M1113.32,360c-17.57,0-35.22,5.39-49.79,16.46L138.26,1080h1077.18l280.82-213.52c33.49-25.47,38.44-71.73,11-102.81l-332.93-377c-15.51-17.56-38.18-26.67-61.01-26.67h0Z"/>
</svg>